# This file uses centimeters as units for non-parametric coordinates.

mtllib Brick.mtl
g default
v -0.200000 0.000000 0.100000
v -0.160000 0.000000 0.100000
v -0.120000 0.000000 0.100000
v -0.080000 0.000000 0.100000
v -0.040000 0.000000 0.100000
v -0.000000 0.000000 0.100000
v 0.040000 0.000000 0.100000
v 0.080000 0.000000 0.100000
v 0.120000 0.000000 0.100000
v -0.200000 0.066667 0.100000
v 0.120000 0.066667 0.100000
v -0.200000 0.133333 0.100000
v 0.120000 0.133333 0.100000
v -0.200000 0.200000 0.100000
v -0.160000 0.200000 0.100000
v -0.120000 0.200000 0.100000
v -0.080000 0.200000 0.100000
v -0.040000 0.200000 0.100000
v -0.000000 0.200000 0.100000
v 0.040000 0.200000 0.100000
v 0.080000 0.200000 0.100000
v 0.120000 0.200000 0.100000
v -0.200000 0.200000 0.060000
v 0.080000 0.200000 0.060000
v -0.200000 0.200000 0.020000
v 0.040000 0.200000 0.020000
v -0.200000 0.200000 -0.020000
v 0.080000 0.200000 -0.020000
v -0.200000 0.200000 -0.060000
v 0.040000 0.200000 -0.060000
v -0.200000 0.200000 -0.100000
v -0.160000 0.200000 -0.100000
v -0.120000 0.200000 -0.100000
v -0.080000 0.200000 -0.100000
v -0.040000 0.200000 -0.100000
v -0.000000 0.200000 -0.100000
v -0.200000 0.133333 -0.100000
v -0.200000 0.066667 -0.100000
v -0.200000 0.000000 -0.100000
v -0.160000 0.000000 -0.100000
v -0.120000 0.000000 -0.100000
v -0.080000 0.000000 -0.100000
v -0.040000 0.000000 -0.100000
v -0.000000 0.000000 -0.100000
v 0.040000 0.000000 -0.100000
v -0.200000 0.000000 -0.060000
v -0.200000 0.000000 -0.020000
v 0.080000 0.000000 -0.020000
v -0.200000 0.000000 0.020000
v 0.040000 0.000000 0.020000
v -0.200000 0.000000 0.060000
v 0.080000 0.000000 0.060000
v 0.060000 0.000000 -0.060000
vt 0.861132 0.241465
vt 0.812841 0.241465
vt 0.764549 0.241465
vt 0.716258 0.241465
vt 0.667966 0.241465
vt 0.667966 0.160979
vt 0.667966 0.080494
vt 0.667966 0.000008
vt 0.716258 0.000008
vt 0.764549 0.000008
vt 0.812841 0.000008
vt 0.861132 0.000008
vt 0.909423 0.000008
vt 0.909423 0.080494
vt 0.909423 0.160979
vt 0.909423 0.241465
vt 0.091784 0.776692
vt 0.023520 0.774658
vt 0.030713 0.533308
vt 0.098977 0.535342
vt 0.160048 0.778727
vt 0.167241 0.537377
vt 0.228312 0.780761
vt 0.235505 0.539411
vt 0.296548 0.783578
vt 0.289472 0.541019
vt 0.364749 0.787165
vt 0.343457 0.541848
vt 0.652742 0.708195
vt 0.604649 0.756683
vt 0.556358 0.756880
vt 0.508067 0.757078
vt 0.459776 0.757275
vt 0.411485 0.757472
vt 0.363194 0.757670
vt 0.362996 0.709378
vt 0.362799 0.661087
vt 0.362602 0.612796
vt 0.362404 0.564505
vt 0.362207 0.516214
vt 0.410498 0.516017
vt 0.458789 0.515820
vt 0.507080 0.515623
vt 0.555371 0.515425
vt 0.603662 0.515228
vt 0.651953 0.515031
vt 0.700244 0.514833
vt 0.748535 0.514636
vt 0.700441 0.563124
vt 0.652348 0.611613
vt 0.700836 0.659706
vt 0.000000 0.292984
vt 0.048228 0.290512
vt 0.002471 0.341212
vt 0.096456 0.288041
vt 0.004943 0.389440
vt 0.144684 0.285570
vt 0.007414 0.437668
vt 0.192913 0.283098
vt 0.009885 0.485896
vt 0.241141 0.280627
vt 0.060585 0.531653
vt 0.012357 0.534124
vt 0.289369 0.278156
vt 0.108813 0.529182
vt 0.315954 0.325148
vt 0.157041 0.526710
vt 0.342540 0.372140
vt 0.296783 0.422840
vt 0.205269 0.524239
vt 0.253497 0.521768
vt 0.347482 0.468597
vt 0.301726 0.519296
vt 0.349954 0.516825
vt 0.398182 0.514353
vt 0.700238 0.483183
vt 0.651948 0.482838
vt 0.603659 0.482493
vt 0.555367 0.482149
vt 0.507078 0.481803
vt 0.458787 0.481456
vt 0.410497 0.481111
vt 0.362207 0.480765
vt 0.362783 0.400282
vt 0.363358 0.319798
vt 0.363934 0.239315
vt 0.412224 0.239660
vt 0.460514 0.240006
vt 0.508805 0.240351
vt 0.557095 0.240695
vt 0.605386 0.241043
vt 0.653675 0.241387
vt 0.701965 0.241732
vt 0.750255 0.242078
vt 0.749679 0.322561
vt 0.749104 0.403045
vt 0.748528 0.483528
vt 0.734500 0.996141
vt 0.686215 0.996913
vt 0.637930 0.997684
vt 0.589645 0.998456
vt 0.541359 0.999228
vt 0.493074 1.000000
vt 0.491788 0.919525
vt 0.490501 0.839049
vt 0.489215 0.758574
vt 0.537500 0.757802
vt 0.585785 0.757030
vt 0.634070 0.756258
vt 0.682356 0.755486
vt 0.730641 0.754714
vt 0.782786 0.995369
vn -0.000000 0.000000 1.000000
vn -0.000000 0.000000 1.000000
vn -0.000000 0.000000 1.000000
vn -0.000000 0.000000 1.000000
vn -0.000000 0.000000 1.000000
vn -0.000000 0.000000 1.000000
vn -0.000000 0.000000 1.000000
vn -0.000000 0.000000 1.000000
vn -0.000000 0.000000 1.000000
vn -0.000000 0.000000 1.000000
vn -0.000000 0.000000 1.000000
vn -0.000000 0.000000 1.000000
vn -0.000000 0.000000 1.000000
vn -0.000000 0.000000 1.000000
vn -0.000000 0.000000 1.000000
vn -0.000000 0.000000 1.000000
vn -0.000000 0.000000 1.000000
vn -0.000000 0.000000 1.000000
vn -0.000000 0.000000 1.000000
vn -0.000000 0.000000 1.000000
vn -0.000000 0.000000 1.000000
vn -0.000000 0.000000 1.000000
vn 0.000000 1.000000 -0.000000
vn 0.000000 1.000000 -0.000000
vn 0.000000 1.000000 -0.000000
vn 0.000000 1.000000 -0.000000
vn 0.000000 1.000000 -0.000000
vn 0.000000 1.000000 -0.000000
vn 0.000000 1.000000 -0.000000
vn 0.000000 1.000000 -0.000000
vn 0.000000 1.000000 -0.000000
vn 0.000000 1.000000 -0.000000
vn 0.000000 1.000000 -0.000000
vn 0.000000 1.000000 -0.000000
vn 0.000000 1.000000 -0.000000
vn 0.000000 1.000000 -0.000000
vn 0.000000 1.000000 -0.000000
vn 0.000000 1.000000 -0.000000
vn 0.000000 1.000000 -0.000000
vn 0.000000 1.000000 -0.000000
vn 0.000000 1.000000 -0.000000
vn 0.000000 1.000000 -0.000000
vn 0.000000 1.000000 -0.000000
vn 0.000000 1.000000 -0.000000
vn 0.000000 1.000000 -0.000000
vn 0.000000 0.000000 -1.000000
vn 0.000000 0.000000 -1.000000
vn 0.000000 0.000000 -1.000000
vn 0.000000 0.000000 -1.000000
vn 0.000000 0.000000 -1.000000
vn 0.000000 0.000000 -1.000000
vn 0.000000 0.000000 -1.000000
vn 0.000000 0.000000 -1.000000
vn 0.000000 0.000000 -1.000000
vn 0.000000 0.000000 -1.000000
vn 0.000000 0.000000 -1.000000
vn 0.000000 0.000000 -1.000000
vn 0.000000 0.000000 -1.000000
vn 0.000000 0.000000 -1.000000
vn 0.000000 0.000000 -1.000000
vn 0.000000 -1.000000 -0.000000
vn 0.000000 -1.000000 -0.000000
vn 0.000000 -1.000000 -0.000000
vn 0.000000 -1.000000 -0.000000
vn 0.000000 -1.000000 -0.000000
vn 0.000000 -1.000000 -0.000000
vn 0.000000 -1.000000 -0.000000
vn 0.000000 -1.000000 -0.000000
vn 0.000000 -1.000000 -0.000000
vn 0.000000 -1.000000 -0.000000
vn 0.000000 -1.000000 -0.000000
vn 0.000000 -1.000000 -0.000000
vn 0.000000 -1.000000 -0.000000
vn 0.000000 -1.000000 -0.000000
vn 0.000000 -1.000000 -0.000000
vn 0.000000 -1.000000 -0.000000
vn 0.000000 -1.000000 -0.000000
vn 0.000000 -1.000000 -0.000000
vn 0.000000 -1.000000 -0.000000
vn 0.000000 -1.000000 -0.000000
vn 0.000000 -1.000000 -0.000000
vn 0.000000 -1.000000 -0.000000
vn 0.000000 -1.000000 -0.000000
vn 0.000000 -1.000000 -0.000000
vn -1.000000 -0.000000 0.000000
vn -1.000000 -0.000000 0.000000
vn -1.000000 -0.000000 0.000000
vn -1.000000 -0.000000 0.000000
vn -1.000000 -0.000000 0.000000
vn -1.000000 -0.000000 0.000000
vn -1.000000 -0.000000 0.000000
vn -1.000000 -0.000000 0.000000
vn -1.000000 -0.000000 0.000000
vn -1.000000 -0.000000 0.000000
vn -1.000000 -0.000000 0.000000
vn -1.000000 -0.000000 0.000000
vn -1.000000 -0.000000 0.000000
vn -1.000000 -0.000000 0.000000
vn -1.000000 -0.000000 0.000000
vn -1.000000 -0.000000 0.000000
vn 0.707107 0.000000 -0.707107
vn 0.707107 0.000000 -0.707107
vn 0.707107 0.000000 -0.707107
vn 0.707107 0.000000 -0.707107
vn 0.707107 0.000000 -0.707107
vn 0.707107 0.000000 -0.707107
vn 0.707107 0.000000 -0.707107
vn 0.707107 0.000000 -0.707107
vn 0.984268 0.065618 -0.164045
vn 0.984268 0.065618 -0.164045
vn 0.984268 0.065618 -0.164045
vn 0.984268 0.065618 -0.164045
vn 0.984268 0.065618 -0.164045
vn 0.984268 0.065618 -0.164045
vn 0.984268 0.065618 -0.164045
vn 0.984268 0.065618 -0.164045
s off
g pCube1
usemtl initialShadingGroup
f 21/76/1 20/77/2 19/78/3 18/79/4 17/80/5 16/81/6 15/82/7 14/83/8 12/84/9 10/85/10 1/86/11 2/87/12 3/88/13 4/89/14 5/90/15 6/91/16 7/92/17 8/93/18 9/94/19 11/95/20 13/96/21 22/97/22
f 30/29/23 36/30/24 35/31/25 34/32/26 33/33/27 32/34/28 31/35/29 29/36/30 27/37/31 25/38/32 23/39/33 14/40/34 15/41/35 16/42/36 17/43/37 18/44/38 19/45/39 20/46/40 21/47/41 22/48/42 24/49/43 26/50/44 28/51/45
f 44/98/46 43/99/47 42/100/48 41/101/49 40/102/50 39/103/51 38/104/52 37/105/53 31/106/54 32/107/55 33/108/56 34/109/57 35/110/58 36/111/59 45/112/60
f 8/74/61 7/73/62 6/71/63 5/70/64 4/67/65 3/65/66 2/62/67 1/63/68 51/60/69 49/58/70 47/56/71 46/54/72 39/52/73 40/53/74 41/55/75 42/57/76 43/59/77 44/61/78 45/64/79 53/66/80 48/68/81 50/69/82 52/72/83 9/75/84
f 23/1/85 25/2/86 27/3/87 29/4/88 31/5/89 37/6/90 38/7/91 39/8/92 46/9/93 47/10/94 49/11/95 51/12/96 1/13/97 10/14/98 12/15/99 14/16/100
f 24/17/101 22/18/102 9/19/103 52/20/104
f 26/21/105 24/17/106 52/20/107 50/22/108
f 48/24/109 53/26/110 45/28/111 36/27/112 30/25/113 28/23/114 26/21/115 50/22/116
g default
v 0.218056 0.000000 0.100000
v 0.251389 0.000000 0.100000
v 0.218056 0.200000 0.100000
v 0.251389 0.200000 0.100000
v 0.184723 0.200000 0.060000
v 0.251389 0.200000 0.060000
v 0.151389 0.200000 0.020000
v 0.251389 0.200000 0.020000
v 0.184723 0.200000 -0.020000
v 0.251389 0.200000 -0.020000
v 0.151389 0.200000 -0.060000
v 0.251389 0.200000 -0.060000
v 0.118056 0.200000 -0.100000
v 0.151389 0.200000 -0.100000
v 0.184723 0.200000 -0.100000
v 0.218056 0.200000 -0.100000
v 0.251389 0.200000 -0.100000
v 0.151389 0.000000 -0.100000
v 0.184723 0.000000 -0.100000
v 0.218056 0.000000 -0.100000
v 0.251389 0.000000 -0.100000
v 0.251389 0.000000 -0.060000
v 0.184723 0.000000 -0.020000
v 0.251389 0.000000 -0.020000
v 0.151389 0.000000 0.020000
v 0.251389 0.000000 0.020000
v 0.184723 0.000000 0.060000
v 0.251389 0.000000 0.060000
v 0.168056 0.000000 -0.060000
vt 0.752638 0.482922
vt 0.752638 0.241465
vt 0.800929 0.241465
vt 0.849221 0.241465
vt 0.897512 0.241465
vt 0.945804 0.241465
vt 0.994095 0.241465
vt 0.994095 0.482922
vt 0.945804 0.482922
vt 0.897512 0.482922
vt 0.849221 0.482922
vt 0.800929 0.482922
vt 0.165814 0.024018
vt 0.228013 0.014921
vt 0.262956 0.253836
vt 0.200757 0.262933
vt 0.138557 0.272030
vt 0.103614 0.033115
vt 0.325156 0.244739
vt 0.076448 0.281728
vt 0.051849 0.040686
vt 0.014435 0.292019
vt 0.000000 0.047657
vt 0.877553 0.916968
vt 0.837310 0.916968
vt 0.877553 0.868676
vt 0.917796 0.820385
vt 0.877553 0.772093
vt 0.917796 0.723802
vt 0.958038 0.675510
vt 0.998281 0.675510
vt 0.998281 0.723802
vt 0.998281 0.772093
vt 0.998281 0.820385
vt 0.998281 0.868676
vt 0.998281 0.916968
vt 0.958038 0.916968
vt 0.917796 0.916968
vt 0.407154 0.757654
vt 0.447397 0.757654
vt 0.487640 0.757654
vt 0.487640 0.805946
vt 0.407154 0.854237
vt 0.366911 0.757654
vt 0.387032 0.805946
vt 0.487640 0.854237
vt 0.407154 0.950820
vt 0.487640 0.902528
vt 0.487640 0.950820
vt 0.447397 0.999111
vt 0.366911 0.902528
vt 0.487640 0.999111
vt 0.290213 0.005824
vt 0.330032 0.000000
vt 0.364975 0.238915
vt 0.792881 0.482922
vt 0.833124 0.482922
vt 0.833124 0.724379
vt 0.792881 0.724379
vt 0.873367 0.482922
vt 0.873367 0.724379
vt 0.752638 0.482922
vt 0.913610 0.482922
vt 0.913610 0.724379
vn 0.000000 1.000000 0.000000
vn 0.000000 1.000000 0.000000
vn 0.000000 1.000000 0.000000
vn 0.000000 1.000000 0.000000
vn 0.000000 1.000000 0.000000
vn 0.000000 1.000000 0.000000
vn 0.000000 1.000000 0.000000
vn 0.000000 1.000000 0.000000
vn 0.000000 1.000000 0.000000
vn 0.000000 1.000000 0.000000
vn 0.000000 1.000000 0.000000
vn 0.000000 1.000000 0.000000
vn 0.000000 1.000000 0.000000
vn 0.000000 1.000000 0.000000
vn 0.000000 1.000000 0.000000
vn 0.000000 -1.000000 0.000000
vn 0.000000 -1.000000 0.000000
vn 0.000000 -1.000000 0.000000
vn 0.000000 -1.000000 0.000000
vn 0.000000 -1.000000 0.000000
vn 0.000000 -1.000000 0.000000
vn 0.000000 -1.000000 0.000000
vn 0.000000 -1.000000 0.000000
vn 0.000000 -1.000000 0.000000
vn 0.000000 -1.000000 0.000000
vn 0.000000 -1.000000 0.000000
vn 0.000000 -1.000000 0.000000
vn 0.000000 -1.000000 0.000000
vn 0.000000 -1.000000 0.000000
vn 1.000000 -0.000000 0.000000
vn 1.000000 -0.000000 0.000000
vn 1.000000 -0.000000 0.000000
vn 1.000000 -0.000000 0.000000
vn 1.000000 -0.000000 0.000000
vn 1.000000 -0.000000 0.000000
vn 1.000000 -0.000000 0.000000
vn 1.000000 -0.000000 0.000000
vn 1.000000 -0.000000 0.000000
vn 1.000000 -0.000000 0.000000
vn 1.000000 -0.000000 0.000000
vn 1.000000 -0.000000 0.000000
vn -0.514496 0.000000 0.857493
vn -0.514496 0.000000 0.857493
vn -0.514496 0.000000 0.857493
vn -0.514496 0.000000 0.857493
vn -0.514496 0.000000 0.857493
vn -0.514496 0.000000 0.857493
vn -1.000000 0.000000 0.000000
vn -1.000000 0.000000 0.000000
vn -1.000000 0.000000 0.000000
vn -1.000000 0.000000 0.000000
vn -1.000000 0.000000 0.000000
vn -1.000000 0.000000 0.000000
vn -0.847469 -0.035311 0.529668
vn -0.847469 -0.035311 0.529669
vn -0.847469 -0.035311 0.529668
vn -0.847469 -0.035311 0.529668
vn -0.843274 -0.105409 0.527046
vn -0.843274 -0.105409 0.527046
vn -0.843274 -0.105409 0.527046
vn -0.843274 -0.105409 0.527046
vn 0.000000 0.000000 -1.000000
vn 0.000000 0.000000 -1.000000
vn 0.000000 0.000000 -1.000000
vn 0.000000 0.000000 -1.000000
vn 0.000000 0.000000 -1.000000
vn 0.000000 0.000000 -1.000000
vn 0.000000 0.000000 -1.000000
vn 0.000000 0.000000 -1.000000
vn 0.000000 0.000000 -1.000000
s off
g pCube2
usemtl initialShadingGroup
f 67/136/117 66/137/118 64/138/119 62/139/120 60/140/121 58/141/122 56/142/123 57/143/124 59/144/125 61/145/126 63/146/127 65/147/128 70/148/129 69/149/130 68/150/131
f 75/154/132 77/158/133 79/160/134 81/161/135 55/164/136 54/162/137 80/159/138 78/163/139 76/155/140 82/157/141 71/156/142 72/151/143 73/152/144 74/153/145
f 57/113/146 55/114/147 81/115/148 79/116/149 77/117/150 75/118/151 74/119/152 70/120/153 65/121/154 63/122/155 61/123/156 59/124/157
f 56/131/158 58/127/159 80/126/160 54/165/161 55/166/162 57/167/163
f 78/125/164 80/126/165 58/127/166 60/128/167 62/129/168 76/130/169
f 62/129/170 64/132/171 82/133/172 76/130/173
f 64/132/174 66/134/175 71/135/176 82/133/177
f 73/173/178 72/170/179 71/171/180 66/174/181 67/168/182 68/169/183 69/172/184 70/175/185 74/176/186
