# This file uses centimeters as units for non-parametric coordinates.

mtllib Floornaked.mtl
g default
v -0.400000 -0.025000 0.400000
v 0.400000 -0.025000 0.400000
v -0.400000 0.025000 0.400000
v 0.400000 0.025000 0.400000
v -0.400000 0.025000 -0.400000
v 0.400000 0.025000 -0.400000
v -0.400000 -0.025000 -0.400000
v 0.400000 -0.025000 -0.400000
v -0.400000 -0.025000 0.500000
v 0.400000 -0.025000 0.500000
v 0.400000 0.025000 0.500000
v -0.400000 0.025000 0.500000
v -0.500000 -0.025000 -0.400000
v -0.500000 -0.025000 0.400000
v -0.500000 0.025000 0.400000
v -0.500000 0.025000 -0.400000
v -0.400000 0.025000 -0.500000
v 0.400000 0.025000 -0.500000
v 0.400000 -0.025000 -0.500000
v -0.400000 -0.025000 -0.500000
v 0.500000 -0.025000 -0.400000
v 0.500000 -0.025000 0.400000
v 0.500000 0.025000 -0.400000
v 0.500000 0.025000 0.400000
v 0.500000 -0.025000 0.500000
v 0.500000 0.025000 0.500000
v -0.500000 -0.025000 0.500000
v -0.500000 0.025000 0.500000
v -0.500000 0.025000 -0.500000
v -0.500000 -0.025000 -0.500000
v 0.500000 0.025000 -0.500000
v 0.500000 -0.025000 -0.500000
v -0.400000 0.050000 0.400000
v 0.400000 0.050000 0.400000
v -0.400000 0.050000 0.500000
v 0.400000 0.050000 0.500000
v -0.400000 0.050000 -0.400000
v -0.500000 0.050000 -0.400000
v -0.500000 0.050000 0.400000
v 0.400000 0.050000 -0.400000
v 0.400000 0.050000 -0.500000
v -0.400000 0.050000 -0.500000
v 0.500000 0.050000 0.400000
v 0.500000 0.050000 -0.400000
v 0.500000 0.050000 0.500000
v -0.500000 0.050000 0.500000
v -0.500000 0.050000 -0.500000
v 0.500000 0.050000 -0.500000
vt 0.656251 0.001962
vt 0.899446 0.001962
vt 0.899446 0.245157
vt 0.656251 0.245157
vt 0.929846 0.001962
vt 0.929846 0.245157
vt 0.899446 0.366754
vt 0.656251 0.366754
vt 0.625852 0.245157
vt 0.625852 0.001962
vt 0.929846 0.366754
vt 0.625852 0.366754
vt 0.724414 0.370745
vt 0.967609 0.370745
vt 0.967609 0.613940
vt 0.724414 0.613940
vt 0.998008 0.370745
vt 0.998008 0.613940
vt 0.967609 0.735538
vt 0.724414 0.735538
vt 0.694014 0.613940
vt 0.694014 0.370745
vt 0.998008 0.735538
vt 0.694014 0.735538
vt 0.380284 0.921926
vt 0.380284 0.678731
vt 0.501881 0.678731
vt 0.501881 0.921926
vt 0.637545 0.982724
vt 0.637545 0.739529
vt 0.759143 0.739529
vt 0.759143 0.982724
vt 0.001992 0.678731
vt 0.245187 0.678731
vt 0.245187 0.921926
vt 0.001992 0.921926
vt 0.414285 0.401145
vt 0.657480 0.401145
vt 0.657480 0.644340
vt 0.414285 0.644340
vt 0.414285 0.370745
vt 0.657480 0.370745
vt 0.687879 0.401145
vt 0.687879 0.644340
vt 0.657480 0.674739
vt 0.414285 0.674739
vt 0.383885 0.644340
vt 0.383885 0.401145
vt 0.383885 0.370745
vt 0.687879 0.370745
vt 0.687879 0.674739
vt 0.383885 0.674739
vt 0.347351 0.401145
vt 0.104156 0.401145
vt 0.104156 0.370746
vt 0.347351 0.370746
vt 0.073756 0.401145
vt 0.073756 0.370746
vt 0.377750 0.370746
vt 0.377750 0.401145
vt 0.104156 0.644340
vt 0.073756 0.644340
vt 0.347351 0.644340
vt 0.377750 0.644340
vt 0.104156 0.674739
vt 0.073756 0.674739
vt 0.347351 0.674739
vt 0.377750 0.674739
vt 0.032391 0.001962
vt 0.275586 0.001962
vt 0.275586 0.245157
vt 0.032391 0.245157
vt 0.305986 0.001962
vt 0.305986 0.245157
vt 0.275586 0.366754
vt 0.032391 0.366754
vt 0.001992 0.245157
vt 0.001992 0.001962
vt 0.305986 0.366754
vt 0.001992 0.366754
vt 0.344419 0.123559
vt 0.587614 0.123559
vt 0.587614 0.366754
vt 0.344419 0.366754
vt 0.344419 0.001962
vt 0.587614 0.001962
vt 0.618013 0.123559
vt 0.618013 0.366754
vt 0.314019 0.366754
vt 0.314019 0.123559
vt 0.314019 0.001962
vt 0.618013 0.001962
vt 0.373250 0.678731
vt 0.373250 0.921926
vt 0.251653 0.921926
vt 0.251653 0.678731
vt 0.508915 0.921926
vt 0.508915 0.678731
vt 0.630512 0.678731
vt 0.630512 0.921926
vn 0.000000 0.000000 1.000000
vn 0.000000 0.000000 1.000000
vn 0.000000 0.000000 1.000000
vn 0.000000 0.000000 1.000000
vn 0.000000 1.000000 0.000000
vn 0.000000 1.000000 0.000000
vn 0.000000 1.000000 0.000000
vn 0.000000 1.000000 0.000000
vn 0.000000 0.000000 -1.000000
vn -0.000000 0.000000 -1.000000
vn -0.000000 0.000000 -1.000000
vn 0.000000 0.000000 -1.000000
vn -0.000000 -1.000000 -0.000000
vn -0.000000 -1.000000 -0.000000
vn -0.000000 -1.000000 0.000000
vn -0.000000 -1.000000 0.000000
vn 1.000000 -0.000003 0.000000
vn 1.000000 -0.000003 0.000000
vn 1.000000 -0.000000 -0.000000
vn 1.000000 -0.000000 0.000000
vn -1.000000 0.000003 0.000000
vn -1.000000 0.000003 0.000000
vn -1.000000 -0.000000 0.000000
vn -1.000000 -0.000000 -0.000000
vn -0.000000 -1.000000 0.000000
vn -0.000000 -1.000000 0.000000
vn 0.000000 1.000000 -0.000000
vn 0.000000 1.000000 -0.000000
vn 0.000000 1.000000 -0.000000
vn 0.000000 1.000000 -0.000000
vn 0.000000 -1.000000 0.000000
vn 0.000000 -1.000000 0.000000
vn -0.000000 1.000000 -0.000000
vn -0.000000 1.000000 -0.000000
vn -0.000000 1.000000 -0.000000
vn -0.000000 1.000000 -0.000000
vn 0.000000 1.000000 0.000000
vn 0.000000 1.000000 0.000000
vn 0.000000 1.000000 0.000000
vn 0.000000 1.000000 0.000000
vn -0.000000 -1.000000 -0.000000
vn -0.000000 -1.000000 -0.000000
vn 0.000000 -1.000000 0.000000
vn 0.000000 -1.000000 0.000000
vn -0.000000 1.000000 0.000000
vn -0.000000 1.000000 0.000000
vn -0.000000 1.000000 0.000000
vn -0.000000 1.000000 0.000000
vn 1.000000 -0.000000 0.000000
vn 1.000000 -0.000003 0.000000
vn 0.000000 0.000000 1.000000
vn 0.000000 0.000000 1.000000
vn 0.000000 0.000000 1.000000
vn 0.000000 -1.000000 0.000001
vn 0.000000 -1.000000 0.000001
vn 0.000000 -1.000000 0.000001
vn 0.000000 -1.000000 0.000001
vn -0.000000 1.000000 -0.000000
vn -0.000000 1.000000 -0.000000
vn -0.000000 1.000000 -0.000000
vn -0.000000 1.000000 -0.000000
vn 0.000000 0.000000 1.000000
vn 0.000000 0.000000 1.000000
vn -1.000000 0.000003 -0.000000
vn -1.000000 0.000003 -0.000000
vn -1.000000 -0.000000 0.000000
vn -0.000000 -1.000000 0.000000
vn -0.000000 -1.000000 0.000000
vn -0.000000 -1.000000 0.000000
vn -0.000000 -1.000000 0.000000
vn -0.000000 1.000000 -0.000000
vn -0.000000 1.000000 -0.000000
vn -0.000000 1.000000 -0.000000
vn -0.000000 1.000000 -0.000000
vn -1.000000 -0.000000 -0.000000
vn -1.000000 0.000003 0.000000
vn 0.000000 0.000000 -1.000000
vn 0.000000 0.000000 -1.000000
vn 0.000000 0.000000 -1.000000
vn -0.000000 -1.000000 -0.000000
vn -0.000000 -1.000000 -0.000000
vn -0.000000 -1.000000 -0.000000
vn -0.000000 -1.000000 -0.000000
vn 0.000000 1.000000 0.000000
vn 0.000000 1.000000 0.000000
vn 0.000000 1.000000 0.000000
vn 0.000000 1.000000 0.000000
vn -0.000000 0.000000 -1.000000
vn -0.000000 0.000000 -1.000000
vn 1.000000 -0.000003 -0.000000
vn 1.000000 -0.000003 -0.000000
vn 1.000000 0.000000 -0.000000
vn -0.000000 1.000000 0.000000
vn -0.000000 1.000000 0.000000
vn -0.000000 1.000000 0.000000
vn -0.000000 1.000000 0.000000
vn 0.000000 -1.000000 -0.000001
vn 0.000000 -1.000000 -0.000001
vn 0.000000 -1.000000 -0.000001
vn 0.000000 -1.000000 -0.000001
vn 0.000000 0.000000 -1.000000
vn 0.000000 0.000000 -1.000000
vn 0.000000 0.000000 -1.000000
vn 0.000000 0.000000 -1.000000
vn 0.000000 0.000000 1.000000
vn 0.000000 0.000000 1.000000
vn 1.000000 0.000006 -0.000000
vn 1.000000 0.000006 -0.000000
vn 1.000000 0.000006 -0.000000
vn 1.000000 0.000006 -0.000000
vn -1.000000 -0.000006 0.000000
vn -1.000000 -0.000006 -0.000000
vn 0.000000 0.000000 1.000000
vn 0.000000 0.000000 1.000000
vn 0.000000 0.000000 1.000000
vn 0.000000 0.000000 1.000000
vn 0.000000 0.000000 -1.000000
vn 0.000000 0.000000 -1.000000
vn -1.000000 -0.000006 0.000000
vn -1.000000 -0.000006 0.000000
vn -1.000000 -0.000006 0.000000
vn -1.000000 -0.000006 0.000000
vn 1.000000 0.000006 0.000000
vn 1.000000 0.000006 0.000000
vn 0.000000 0.000000 1.000000
vn 1.000000 0.000006 0.000000
vn -1.000000 -0.000006 0.000000
vn 0.000000 0.000000 1.000000
vn 0.000000 0.000000 -1.000000
vn -1.000000 -0.000006 -0.000000
vn 1.000000 0.000006 0.000000
vn 0.000000 0.000000 -1.000000
s 1
g pCube1
usemtl initialShadingGroup
f 9/69/1 10/70/2 11/71/3 12/72/4
s off
f 3/33/5 4/34/6 6/35/7 5/36/8
s 2
f 17/81/9 18/82/10 19/83/11 20/84/12
s 3
f 7/37/13 8/38/14 2/39/15 1/40/16
s 4
f 22/1/17 21/2/18 23/3/19 24/4/20
s 5
f 13/13/21 14/14/22 15/15/23 16/16/24
s 3
f 1/40/16 2/39/15 10/45/25 9/46/26
s off
f 34/53/27 33/54/28 35/55/29 36/56/30
s 3
f 7/37/13 1/40/16 14/47/31 13/48/32
s off
f 33/54/33 37/61/34 38/62/35 39/57/36
f 37/61/37 40/63/38 41/67/39 42/65/40
s 3
f 8/38/14 7/37/13 20/41/41 19/42/42
f 2/39/15 8/38/14 21/43/43 22/44/44
s off
f 40/63/45 34/53/46 43/60/47 44/64/48
s 4
f 22/1/17 24/4/20 26/9/49 25/10/50
s 1
f 11/71/3 10/70/51 25/73/52 26/74/53
s off
f 10/45/54 2/39/55 22/44/56 25/51/57
f 36/56/58 45/59/59 43/60/60 34/53/61
s 1
f 9/69/1 12/72/4 28/77/62 27/78/63
s 5
f 15/15/23 14/14/64 27/17/65 28/18/66
s off
f 9/46/67 27/52/68 14/47/69 1/40/70
f 35/55/71 33/54/72 39/57/73 46/58/74
s 5
f 13/13/21 16/16/24 29/21/75 30/22/76
s 2
f 17/81/9 20/84/77 30/89/78 29/90/79
s off
f 13/48/80 30/49/81 20/41/82 7/37/83
f 38/62/84 37/61/85 42/65/86 47/66/87
s 2
f 19/83/11 18/82/10 31/87/88 32/88/89
s 4
f 23/3/19 21/2/90 32/5/91 31/6/92
s off
f 41/67/93 40/63/94 44/64/95 48/68/96
f 19/42/97 32/50/98 21/43/99 8/38/100
f 4/93/101 3/94/102 33/95/103 34/96/104
s 1
f 12/72/4 11/71/3 36/75/105 35/76/106
s off
f 3/25/107 5/26/108 37/27/109 33/28/110
s 5
f 16/16/24 15/15/23 39/19/111 38/20/112
s off
f 5/97/113 6/98/114 40/99/115 37/100/116
s 2
f 18/82/10 17/81/9 42/85/117 41/86/118
s off
f 6/29/119 4/30/120 34/31/121 40/32/122
s 4
f 24/4/20 23/3/19 44/7/123 43/8/124
s 1
f 11/71/3 26/74/53 45/79/125 36/75/105
s 4
f 26/9/49 24/4/20 43/8/124 45/12/126
s 5
f 15/15/23 28/18/66 46/23/127 39/19/111
s 1
f 28/77/62 12/72/4 35/76/106 46/80/128
s 2
f 17/81/9 29/90/79 47/91/129 42/85/117
s 5
f 29/21/75 16/16/24 38/20/112 47/24/130
s 4
f 23/3/19 31/6/92 48/11/131 44/7/123
s 2
f 31/87/88 18/82/10 41/86/118 48/92/132
